<mxfile host="Electron" agent="Mozilla/5.0 (Windows NT 10.0; Win64; x64) AppleWebKit/537.36 (KHTML, like Gecko) draw.io/24.7.5 Chrome/126.0.6478.183 Electron/31.3.0 Safari/537.36" version="24.7.5">
  <diagram name="Page-1" id="03018318-947c-dd8e-b7a3-06fadd420f32">
    <mxGraphModel dx="34" dy="1263" grid="1" gridSize="10" guides="1" tooltips="1" connect="1" arrows="1" fold="1" page="1" pageScale="1" pageWidth="1100" pageHeight="850" background="none" math="0" shadow="0">
      <root>
        <mxCell id="0" />
        <mxCell id="1" parent="0" />
        <mxCell id="7urulk5NtTz7_YCcT2D2-1" value="" style="strokeWidth=1;shadow=0;dashed=0;align=center;html=1;shape=mxgraph.mockup.containers.browserWindow;rSize=0;strokeColor=#666666;strokeColor2=#008cff;strokeColor3=#c4c4c4;mainText=,;recursiveResize=0;movable=1;resizable=1;rotatable=1;deletable=1;editable=1;locked=0;connectable=1;fontSize=20;" vertex="1" parent="1">
          <mxGeometry x="1150" y="70" width="1040" height="750" as="geometry" />
        </mxCell>
        <mxCell id="7urulk5NtTz7_YCcT2D2-2" value="Page 1" style="strokeWidth=1;shadow=0;dashed=0;align=center;html=1;shape=mxgraph.mockup.containers.anchor;fontSize=17;fontColor=#666666;align=left;whiteSpace=wrap;" vertex="1" parent="7urulk5NtTz7_YCcT2D2-1">
          <mxGeometry x="60" y="12" width="110" height="26" as="geometry" />
        </mxCell>
        <mxCell id="7urulk5NtTz7_YCcT2D2-3" value="https://www.draw.io" style="strokeWidth=1;shadow=0;dashed=0;align=center;html=1;shape=mxgraph.mockup.containers.anchor;rSize=0;fontSize=17;fontColor=#666666;align=left;" vertex="1" parent="7urulk5NtTz7_YCcT2D2-1">
          <mxGeometry x="130" y="60" width="250" height="26" as="geometry" />
        </mxCell>
        <mxCell id="7urulk5NtTz7_YCcT2D2-23" value="Delete" style="strokeWidth=1;shadow=0;dashed=0;align=center;html=1;shape=mxgraph.mockup.buttons.button;strokeColor=#666666;fontColor=#ffffff;mainText=;buttonStyle=round;fontSize=17;fontStyle=1;fillColor=#008cff;whiteSpace=wrap;" vertex="1" parent="7urulk5NtTz7_YCcT2D2-1">
          <mxGeometry x="870" y="680" width="150" height="50" as="geometry" />
        </mxCell>
        <mxCell id="7urulk5NtTz7_YCcT2D2-24" value="Modify" style="strokeWidth=1;shadow=0;dashed=0;align=center;html=1;shape=mxgraph.mockup.buttons.button;strokeColor=#666666;fontColor=#ffffff;mainText=;buttonStyle=round;fontSize=17;fontStyle=1;fillColor=#008cff;whiteSpace=wrap;" vertex="1" parent="7urulk5NtTz7_YCcT2D2-1">
          <mxGeometry x="690" y="680" width="150" height="50" as="geometry" />
        </mxCell>
        <mxCell id="7urulk5NtTz7_YCcT2D2-14" value="" style="strokeWidth=1;shadow=0;dashed=0;align=center;html=1;shape=mxgraph.mockup.forms.anchor;align=right;spacingRight=2;fontColor=#666666;" vertex="1" parent="7urulk5NtTz7_YCcT2D2-1">
          <mxGeometry x="110" y="246" width="100" height="32.4" as="geometry" />
        </mxCell>
        <mxCell id="7urulk5NtTz7_YCcT2D2-20" value="&lt;font style=&quot;font-size: 20px;&quot;&gt;Text Content Lorem ipsum&lt;/font&gt;" style="strokeWidth=1;shadow=0;dashed=0;align=center;html=1;shape=mxgraph.mockup.forms.rrect;fillColor=#ffffff;rSize=0;fontColor=#666666;align=left;spacingLeft=3;strokeColor=#999999;verticalAlign=top;whiteSpace=wrap;" vertex="1" parent="7urulk5NtTz7_YCcT2D2-1">
          <mxGeometry x="120" y="380" width="800" height="225" as="geometry" />
        </mxCell>
        <mxCell id="7urulk5NtTz7_YCcT2D2-26" value="" style="group" vertex="1" connectable="0" parent="7urulk5NtTz7_YCcT2D2-1">
          <mxGeometry x="110" y="140" width="800" height="95.39999999999998" as="geometry" />
        </mxCell>
        <mxCell id="7urulk5NtTz7_YCcT2D2-10" value="Subject" style="strokeWidth=1;shadow=0;dashed=0;align=center;shape=mxgraph.mockup.forms.anchor;align=right;spacingRight=2;fontColor=#666666;verticalAlign=middle;textDirection=ltr;labelBackgroundColor=default;fontSize=20;html=1;labelPosition=center;verticalLabelPosition=middle;" vertex="1" parent="7urulk5NtTz7_YCcT2D2-26">
          <mxGeometry width="100" height="32.4" as="geometry" />
        </mxCell>
        <mxCell id="7urulk5NtTz7_YCcT2D2-11" value="&lt;font style=&quot;font-size: 20px;&quot;&gt;john@jgraph.com&lt;/font&gt;" style="strokeWidth=1;shadow=0;dashed=0;align=center;html=1;shape=mxgraph.mockup.forms.rrect;fillColor=#ffffff;rSize=0;fontColor=#666666;align=left;spacingLeft=3;strokeColor=#999999;" vertex="1" parent="7urulk5NtTz7_YCcT2D2-26">
          <mxGeometry x="100" width="700" height="32.4" as="geometry" />
        </mxCell>
        <mxCell id="7urulk5NtTz7_YCcT2D2-12" value="Title" style="strokeWidth=1;shadow=0;dashed=0;align=center;shape=mxgraph.mockup.forms.anchor;align=right;spacingRight=2;fontColor=#666666;fontSize=20;verticalAlign=middle;html=1;labelPosition=center;verticalLabelPosition=middle;" vertex="1" parent="7urulk5NtTz7_YCcT2D2-26">
          <mxGeometry y="63" width="100" height="32.4" as="geometry" />
        </mxCell>
        <mxCell id="7urulk5NtTz7_YCcT2D2-13" value="Greeting" style="strokeWidth=1;shadow=0;dashed=0;align=center;html=1;shape=mxgraph.mockup.forms.rrect;fillColor=#ffffff;rSize=0;fontColor=#666666;align=left;spacingLeft=3;strokeColor=#999999;fontSize=20;" vertex="1" parent="7urulk5NtTz7_YCcT2D2-26">
          <mxGeometry x="100" y="63" width="700" height="32.4" as="geometry" />
        </mxCell>
        <mxCell id="7urulk5NtTz7_YCcT2D2-27" value="Go Back" style="strokeWidth=1;shadow=0;dashed=0;align=center;html=1;shape=mxgraph.mockup.buttons.button;strokeColor=#666666;fontColor=#ffffff;mainText=;buttonStyle=round;fontSize=17;fontStyle=1;fillColor=#008cff;whiteSpace=wrap;" vertex="1" parent="7urulk5NtTz7_YCcT2D2-1">
          <mxGeometry x="500" y="680" width="150" height="50" as="geometry" />
        </mxCell>
        <mxCell id="7urulk5NtTz7_YCcT2D2-44" value="Author" style="strokeWidth=1;shadow=0;dashed=0;align=center;shape=mxgraph.mockup.forms.anchor;align=right;spacingRight=2;fontColor=#666666;verticalAlign=middle;textDirection=ltr;labelBackgroundColor=default;fontSize=20;html=1;labelPosition=center;verticalLabelPosition=middle;" vertex="1" parent="7urulk5NtTz7_YCcT2D2-1">
          <mxGeometry x="110" y="260" width="100" height="32.4" as="geometry" />
        </mxCell>
        <mxCell id="7urulk5NtTz7_YCcT2D2-45" value="&lt;font style=&quot;font-size: 20px;&quot;&gt;john@jgraph.com&lt;/font&gt;" style="strokeWidth=1;shadow=0;dashed=0;align=center;html=1;shape=mxgraph.mockup.forms.rrect;fillColor=#ffffff;rSize=0;fontColor=#666666;align=left;spacingLeft=3;strokeColor=#999999;" vertex="1" parent="7urulk5NtTz7_YCcT2D2-1">
          <mxGeometry x="210" y="260" width="700" height="32.4" as="geometry" />
        </mxCell>
        <mxCell id="7urulk5NtTz7_YCcT2D2-46" value="views" style="strokeWidth=1;shadow=0;dashed=0;align=center;shape=mxgraph.mockup.forms.anchor;align=right;spacingRight=2;fontColor=#666666;fontSize=20;verticalAlign=middle;html=1;labelPosition=center;verticalLabelPosition=middle;" vertex="1" parent="7urulk5NtTz7_YCcT2D2-1">
          <mxGeometry x="340" y="323" width="100" height="32.4" as="geometry" />
        </mxCell>
        <mxCell id="7urulk5NtTz7_YCcT2D2-47" value="12" style="strokeWidth=1;shadow=0;dashed=0;align=center;html=1;shape=mxgraph.mockup.forms.rrect;fillColor=#ffffff;rSize=0;fontColor=#666666;align=left;spacingLeft=3;strokeColor=#999999;fontSize=20;" vertex="1" parent="7urulk5NtTz7_YCcT2D2-1">
          <mxGeometry x="440" y="323" width="135" height="32.4" as="geometry" />
        </mxCell>
        <mxCell id="7urulk5NtTz7_YCcT2D2-49" value="Updated time" style="strokeWidth=1;shadow=0;dashed=0;align=center;shape=mxgraph.mockup.forms.anchor;align=right;spacingRight=2;fontColor=#666666;fontSize=20;verticalAlign=middle;html=1;labelPosition=center;verticalLabelPosition=middle;" vertex="1" parent="7urulk5NtTz7_YCcT2D2-1">
          <mxGeometry x="620" y="323" width="100" height="32.4" as="geometry" />
        </mxCell>
        <mxCell id="7urulk5NtTz7_YCcT2D2-50" value="Greeting" style="strokeWidth=1;shadow=0;dashed=0;align=center;html=1;shape=mxgraph.mockup.forms.rrect;fillColor=#ffffff;rSize=0;fontColor=#666666;align=left;spacingLeft=3;strokeColor=#999999;fontSize=20;" vertex="1" parent="7urulk5NtTz7_YCcT2D2-1">
          <mxGeometry x="720" y="323" width="190" height="32.4" as="geometry" />
        </mxCell>
      </root>
    </mxGraphModel>
  </diagram>
</mxfile>
